# xmcd CD database file
#
# Track frame offsets:
#	150
#	13335
#	25844
#	49400
#	51731
#	71603
#	93358
#	109301
#	113766
#	130229
#	145459
#	164326
#	167646
#	185722
#	199787
#
# Disc length: 3013 seconds
#
# Revision: 4
# Processed by: cddbd v1.5.1PL2 Copyright (c) Steve Scherf et al.
# Submitted via: CDex 1.51
#
DISCID=e50bc30f
DTITLE=Magic Dick and Jay Geils - Little Car Blues
DYEAR=1996
DGENRE=Blues
TTITLE0=Bluestime Theme
TTITLE1=Tonight With A Fool
TTITLE2=The Jumpin' Blues
TTITLE3=Hot Leftover No.1
TTITLE4=Feel So Bad
TTITLE5=Fool That I Am
TTITLE6=Stubborn Kind Of Fellow
TTITLE7=Hot Leftover No.2 - Black And Tan Fantasy
TTITLE8=I Don't Play
TTITLE9=Last Time
TTITLE10=Some Sweet Day
TTITLE11=Hot Leftover No.3
TTITLE12=Little Car Blues
TTITLE13=Temperature
TTITLE14=Look How, Baby
EXTD=YEAR: 1996
EXTT0=
EXTT1=
EXTT2=
EXTT3=
EXTT4=
EXTT5=
EXTT6=
EXTT7=
EXTT8=
EXTT9=
EXTT10=
EXTT11=
EXTT12=
EXTT13=
EXTT14=
PLAYORDER=
